# xmcd
#
# Track frame offsets: 
#        150
#        18212
#        33396
#        50038
#        74327
#        91745
#        107297
#        125588
#        151172
#        168534
#        187910
#
# Disc length: 2994 seconds
#
# Revision: 3
# Processed by: cddbd v1.5.2PL0 Copyright (c) Steve Scherf et al.
# Submitted via: ExactAudioCopy v0.95a4
#
DISCID=820bb00b
DTITLE=The Judds - The Judds Reunion [CD 2)
DYEAR=1999
DGENRE=Country
TTITLE0=The Wyld Unknown
TTITLE1=Rock Bottom
TTITLE2=Can't Nobody Love You (Like I Do)
TTITLE3=Tuff Enuff
TTITLE4=Come Some Rainy Day
TTITLE5=Had A Dream (For The Heart)
TTITLE6=Mama  He's Crazy
TTITLE7=Grandpa (Tell Me 'Bout The Good Old Days)
TTITLE8=Why Not Me
TTITLE9=Auld Lang Syne
TTITLE10=Freedom
EXTD=Year: 1999/2000\n\n\n                                            
EXTD=December 31, 1999 Live in Phoenix, Arizona\n\n\n                
EXTD=                          Wynonna International Fan Clu
EXTD=b\n                                                              
EXTD=P.O. Box 120777\n                                              
EXTD=     Nashville, TN 37212\n\n\n                         
EXTD=                          www.wynonna.com
EXTT0=
EXTT1=
EXTT2=
EXTT3=
EXTT4=
EXTT5=
EXTT6=
EXTT7=
EXTT8=
EXTT9=
EXTT10=
PLAYORDER=
